<?xml version="1.0" encoding="UTF-8" standalone="no"?>
<!-- Created with Inkscape (http://www.inkscape.org/) -->

<svg
   width="300mm"
   height="300mm"
   viewBox="0 0 300 300"
   version="1.1"
   id="svg1"
   xml:space="preserve"
   inkscape:version="1.4.2 (ebf0e940, 2025-05-08)"
   sodipodi:docname="ghcitty.svg"
   inkscape:export-filename="ghcitty.png"
   inkscape:export-xdpi="96"
   inkscape:export-ydpi="96"
   xmlns:inkscape="http://www.inkscape.org/namespaces/inkscape"
   xmlns:sodipodi="http://sodipodi.sourceforge.net/DTD/sodipodi-0.dtd"
   xmlns:xlink="http://www.w3.org/1999/xlink"
   xmlns="http://www.w3.org/2000/svg"
   xmlns:svg="http://www.w3.org/2000/svg"><sodipodi:namedview
     id="namedview1"
     pagecolor="#ffffff"
     bordercolor="#000000"
     borderopacity="0.25"
     inkscape:showpageshadow="2"
     inkscape:pageopacity="0.0"
     inkscape:pagecheckerboard="0"
     inkscape:deskcolor="#d1d1d1"
     inkscape:document-units="mm"
     inkscape:zoom="0.28077053"
     inkscape:cx="103.28719"
     inkscape:cy="215.47845"
     inkscape:window-width="1336"
     inkscape:window-height="854"
     inkscape:window-x="316"
     inkscape:window-y="80"
     inkscape:window-maximized="0"
     inkscape:current-layer="layer1" /><defs
     id="defs1"><linearGradient
       id="linearGradient7"
       inkscape:collect="always"><stop
         style="stop-color:#950aac;stop-opacity:0.18772563;"
         offset="0"
         id="stop2" /><stop
         style="stop-color:#369af5;stop-opacity:0.29550827;"
         offset="1"
         id="stop7" /></linearGradient><linearGradient
       inkscape:collect="always"
       xlink:href="#linearGradient5"
       id="linearGradient6"
       x1="2.5764923"
       y1="150.27649"
       x2="298.62006"
       y2="150.27649"
       gradientUnits="userSpaceOnUse"
       gradientTransform="translate(0.04472598,-1.1419963)" /><linearGradient
       id="linearGradient5"
       inkscape:collect="always"><stop
         style="stop-color:#950aac;stop-opacity:0.85559565;"
         offset="0"
         id="stop5" /><stop
         style="stop-color:#369af5;stop-opacity:0.29550827;"
         offset="1"
         id="stop6" /></linearGradient><linearGradient
       inkscape:collect="always"
       xlink:href="#linearGradient3"
       id="linearGradient4"
       x1="2.5764923"
       y1="150.27649"
       x2="298.62006"
       y2="150.27649"
       gradientUnits="userSpaceOnUse"
       gradientTransform="translate(0.04472598,-1.1419963)" /><linearGradient
       id="linearGradient3"
       inkscape:collect="always"><stop
         style="stop-color:#000000;stop-opacity:1;"
         offset="0"
         id="stop3" /><stop
         style="stop-color:#000000;stop-opacity:0;"
         offset="1"
         id="stop4" /></linearGradient><linearGradient
       inkscape:collect="always"
       xlink:href="#linearGradient7"
       id="linearGradient1"
       gradientUnits="userSpaceOnUse"
       gradientTransform="matrix(0.89312981,0,0,0.91581181,21.297919,9.786542)"
       x1="2.5764923"
       y1="150.27649"
       x2="298.62006"
       y2="150.27649" /><linearGradient
       inkscape:collect="always"
       xlink:href="#linearGradient3"
       id="linearGradient2"
       gradientUnits="userSpaceOnUse"
       gradientTransform="matrix(0.89312981,0,0,0.91581181,21.297919,9.786542)"
       x1="2.5764923"
       y1="150.27649"
       x2="298.62006"
       y2="150.27649" /><linearGradient
       inkscape:collect="always"
       xlink:href="#linearGradient7"
       id="linearGradient8"
       gradientUnits="userSpaceOnUse"
       gradientTransform="matrix(0.84813183,0,0,0.89336163,0.42714384,30.483874)"
       x1="2.5764923"
       y1="150.27649"
       x2="298.62006"
       y2="150.27649" /><linearGradient
       inkscape:collect="always"
       xlink:href="#linearGradient3"
       id="linearGradient9"
       gradientUnits="userSpaceOnUse"
       gradientTransform="matrix(0.84813183,0,0,0.89336163,0.42714384,30.483874)"
       x1="2.5764923"
       y1="150.27649"
       x2="298.62006"
       y2="150.27649" /><filter
       inkscape:collect="always"
       style="color-interpolation-filters:sRGB"
       id="filter1"
       x="-0.0077768928"
       y="-0.0054959717"
       width="1.0155538"
       height="1.0109919"><feGaussianBlur
         inkscape:collect="always"
         stdDeviation="0.56455315"
         id="feGaussianBlur1" /></filter><filter
       inkscape:collect="always"
       style="color-interpolation-filters:sRGB"
       id="filter1-3"
       x="-0.0062992834"
       y="-0.0044517373"
       width="1.0125986"
       height="1.0089035"><feGaussianBlur
         inkscape:collect="always"
         stdDeviation="0.45728805"
         id="feGaussianBlur1-5" /></filter></defs><g
     inkscape:label="Layer 1"
     inkscape:groupmode="layer"
     id="layer1"><ellipse
       style="fill:url(#linearGradient6);fill-opacity:0.721443;stroke:url(#linearGradient4);stroke-width:0;stroke-dasharray:none;stroke-opacity:1"
       id="path2"
       cx="150.64301"
       cy="149.13449"
       rx="148.02179"
       ry="148.34357" /><ellipse
       style="fill:url(#linearGradient1);fill-opacity:0.721443;stroke:url(#linearGradient2);stroke-width:0;stroke-dasharray:none;stroke-opacity:1"
       id="path2-9"
       cx="155.80173"
       cy="147.41153"
       rx="132.20267"
       ry="135.8548" /><ellipse
       style="fill:url(#linearGradient8);fill-opacity:0.721443;stroke:url(#linearGradient9);stroke-width:0;stroke-dasharray:none;stroke-opacity:1"
       id="path2-9-7"
       cx="128.15434"
       cy="164.73512"
       rx="125.54198"
       ry="132.52446" /><path
       style="fill:#000000;fill-opacity:0.476654;stroke-width:0.948946;filter:url(#filter1)"
       d="m 111.03337,265.16692 c -0.89974,-0.0978 -3.63402,-0.42468 -6.07618,-0.7264 -21.116278,-2.60889 -32.852292,-12.11427 -36.96492,-29.93906 -1.421302,-6.16015 -1.743882,-18.12384 -0.67501,-25.03452 1.444673,-9.34038 4.215071,-19.09887 7.928376,-27.92701 1.431347,-3.40295 2.602454,-6.28698 2.602454,-6.40896 0,-0.54543 7.039379,-13.39388 10.894466,-19.88486 3.847664,-6.47847 9.338946,-15.24138 12.112084,-19.32831 0.58545,-0.86282 3.82605,-5.68916 7.20134,-10.72521 l 6.13688,-9.15645 3.58083,6.09853 c 6.02938,10.26869 12.89041,23.82304 12.89041,25.46573 0,0.18076 0.28987,1.08037 0.64416,1.99916 2.89947,7.51925 3.79817,13.1458 3.78087,23.67118 -0.0139,8.45307 -0.12928,9.74586 -1.29863,14.55007 -2.46866,10.14234 -7.48681,20.79255 -18.00017,38.20247 -2.54358,4.21211 -4.46323,7.95589 -4.61177,8.99405 -0.22854,1.59741 -0.0983,1.87003 1.27978,2.6783 2.30946,1.35457 5.30098,0.83021 8.49826,-1.4896 5.84053,-4.23762 19.16867,-20.97907 26.6334,-33.45415 l 3.13765,-5.24365 2.87342,6.83362 c 1.58038,3.75849 5.66099,13.27477 9.06802,21.14729 3.40703,7.87252 7.08744,16.40307 8.17868,18.95677 1.54694,3.6201 2.24472,4.7173 3.167,4.97985 2.32598,0.66214 20.75178,-0.20956 23.95467,-1.13327 11.66422,-3.36393 19.91379,-9.77518 23.40532,-18.18969 0.81094,-1.95437 1.71093,-4.12159 1.99996,-4.81606 1.9102,-4.58966 9.53943,-6.01653 13.56206,-2.53649 3.44754,2.98253 4.90495,9.93453 3.35246,15.9917 -3.65471,14.25922 -18.07457,23.00906 -42.7872,25.9629 -5.58065,0.66704 -13.66812,0.79504 -45.80503,0.72498 -21.46526,-0.0468 -39.7639,-0.16512 -40.66364,-0.26291 z m 68.03294,-26.27726 c -0.40018,-0.64803 -0.72759,-1.3496 -0.72759,-1.55903 0,-0.20944 -0.84133,-2.43681 -1.8696,-4.94972 -1.02828,-2.51291 -1.86959,-4.68936 -1.86959,-4.83657 0,-0.14721 -0.55171,-1.6241 -1.22603,-3.28198 -0.67433,-1.65787 -1.90645,-4.80351 -2.73805,-6.99033 -0.83161,-2.18681 -1.99234,-5.16883 -2.57938,-6.6267 -3.30939,-8.21847 -10.3417,-27.28882 -13.19566,-35.78418 -1.81213,-5.39413 -3.65537,-10.88104 -4.0961,-12.19313 -4.87643,-14.51756 -12.44684,-31.48912 -19.93037,-44.6805 -1.12169,-1.97722 -2.03943,-3.70315 -2.03943,-3.83541 0,-0.13226 -1.71026,-3.40504 -3.80058,-7.27284 -7.60228,-14.06688 -9.11428,-17.427862 -10.39895,-23.115527 -1.55044,-6.864306 -0.63986,-18.378872 1.99129,-25.18019 0.90557,-2.34087 0.9512,-2.962165 0.52558,-7.156836 -0.90454,-8.91445 1.08643,-28.922155 3.13334,-31.487564 1.32132,-1.656015 4.71884,-1.255851 7.34966,0.865664 3.23854,2.611584 10.79855,11.103289 14.04977,15.781268 l 2.80106,4.030265 8.8839,0.275802 c 5.07876,0.157675 10.48545,0.629668 12.62308,1.101967 5.71075,1.26177 5.61539,1.291168 10.28276,-3.170559 9.82573,-9.392831 15.38207,-11.822258 17.31952,-7.572725 0.92576,2.030524 1.32487,12.544179 0.81288,21.413945 l -0.39781,6.891775 1.61764,5.301355 c 1.50364,4.92781 1.61875,5.768306 1.63368,11.928069 0.0121,4.993596 -0.19168,7.345265 -0.82687,9.542448 -3.22773,11.165037 -9.78043,18.494813 -19.69164,22.026873 -1.54242,0.54967 -2.88969,1.06419 -2.99395,1.14337 -0.10425,0.0791 0.84223,1.40913 2.10329,2.95544 4.16334,5.10506 6.62374,9.00487 8.10039,12.83931 0.56143,1.45788 1.20461,3.1278 1.42928,3.71095 2.40586,6.24444 3.19423,13.85813 3.45829,33.39858 0.12609,9.3304 0.45132,20.18493 0.72275,24.12119 0.27143,3.93626 0.70728,10.4967 0.96856,14.57874 1.00104,15.63898 1.4476,20.40784 3.06325,32.71195 0.37157,2.82967 0.67557,5.39421 0.67557,5.69896 0,0.36144 -2.50959,0.55409 -7.21817,0.55409 -6.9292,0 -7.24729,-0.0472 -7.94577,-1.17822 z"
       id="path1" /><path
       style="fill:#000000;fill-opacity:0.12062257;stroke-width:0.948946;filter:url(#filter1-3)"
       d="m 115.85069,270.04545 c -0.89974,-0.0978 -3.63402,-0.42468 -6.07618,-0.7264 -21.116277,-2.60889 -32.852291,-12.11427 -36.964919,-29.93906 -1.421302,-6.16015 -1.743882,-18.12384 -0.67501,-25.03452 1.444673,-9.34038 4.215071,-19.09887 7.928376,-27.92701 1.431347,-3.40295 2.602454,-6.28698 2.602454,-6.40896 0,-0.54543 7.039379,-13.39388 10.894468,-19.88486 3.84766,-6.47847 9.338941,-15.24138 12.112081,-19.32831 0.58545,-0.86282 3.82605,-5.68916 7.20134,-10.72521 l 6.13688,-9.15645 3.58083,6.09853 c 6.02938,10.26869 12.89041,23.82304 12.89041,25.46573 0,0.18076 0.28987,1.08037 0.64416,1.99916 2.89947,7.51925 3.79817,13.1458 3.78087,23.67118 -0.0139,8.45307 -0.12928,9.74586 -1.29863,14.55007 -2.46866,10.14234 -7.48681,20.79255 -18.00017,38.20247 -2.54358,4.21211 -4.46323,7.95589 -4.61177,8.99405 -0.22854,1.59741 -0.0983,1.87003 1.27978,2.6783 2.30946,1.35457 5.30098,0.83021 8.49826,-1.4896 5.84053,-4.23762 19.16867,-20.97907 26.6334,-33.45415 l 3.13765,-5.24365 2.87342,6.83362 c 1.58038,3.75849 5.66099,13.27477 9.06802,21.14729 3.40703,7.87252 7.08744,16.40307 8.17868,18.95677 1.54694,3.6201 2.24472,4.7173 3.167,4.97985 2.32598,0.66214 20.75178,-0.20956 23.95467,-1.13327 11.66422,-3.36393 19.91379,-9.77518 23.40532,-18.18969 0.81094,-1.95437 1.71093,-4.12159 1.99996,-4.81606 1.9102,-4.58966 9.53943,-6.01653 13.56206,-2.53649 3.44754,2.98253 4.90495,9.93453 3.35246,15.9917 -3.65471,14.25922 -18.07457,23.00906 -42.7872,25.9629 -5.58065,0.66704 -13.66812,0.79504 -45.80503,0.72498 -21.46526,-0.0468 -39.7639,-0.16512 -40.66364,-0.26291 z m 68.03294,-26.27726 c -0.40018,-0.64803 -0.72759,-1.3496 -0.72759,-1.55903 0,-0.20944 -0.84133,-2.43681 -1.8696,-4.94972 -1.02828,-2.51291 -1.86959,-4.68936 -1.86959,-4.83657 0,-0.14721 -0.55171,-1.6241 -1.22603,-3.28198 -0.67433,-1.65787 -1.90645,-4.80351 -2.73805,-6.99033 -0.83161,-2.18681 -1.99234,-5.16883 -2.57938,-6.6267 -3.30939,-8.21847 -10.3417,-27.28882 -13.19566,-35.78418 -1.81213,-5.39413 -3.65537,-10.88104 -4.0961,-12.19313 -4.87643,-14.51756 -12.44684,-31.48912 -19.93037,-44.6805 -1.12169,-1.97722 -2.03943,-3.70315 -2.03943,-3.83541 0,-0.13226 -1.71026,-3.40504 -3.80058,-7.27284 -7.60228,-14.066876 -9.11428,-17.427858 -10.39895,-23.115523 -1.55044,-6.864306 -0.63986,-18.378872 1.99129,-25.18019 0.90557,-2.34087 0.9512,-2.962165 0.52558,-7.156836 -0.90454,-8.91445 1.08643,-28.922155 3.13334,-31.487564 1.32132,-1.656015 4.71884,-1.255851 7.34966,0.865664 3.23854,2.611584 10.79855,11.103289 14.04977,15.781268 l 2.80106,4.030265 8.8839,0.275802 c 5.07876,0.157675 10.48545,0.629668 12.62308,1.101967 5.71075,1.26177 5.61539,1.291168 10.28276,-3.170559 9.82573,-9.392831 15.38207,-11.822258 17.31952,-7.572725 0.92576,2.030524 1.32487,12.544179 0.81288,21.413945 l -0.39781,6.891775 1.61764,5.301355 c 1.50364,4.92781 1.61875,5.768306 1.63368,11.928069 0.0121,4.993596 -0.19168,7.345265 -0.82687,9.542448 -3.22773,11.165039 -9.78043,18.494809 -19.69164,22.026869 -1.54242,0.54967 -2.88969,1.06419 -2.99395,1.14337 -0.10425,0.0791 0.84223,1.40913 2.10329,2.95544 4.16334,5.10506 6.62374,9.00487 8.10039,12.83931 0.56143,1.45788 1.20461,3.1278 1.42928,3.71095 2.40586,6.24444 3.19423,13.85813 3.45829,33.39858 0.12609,9.3304 0.45132,20.18493 0.72275,24.12119 0.27143,3.93626 0.70728,10.4967 0.96856,14.57874 1.00104,15.63898 1.4476,20.40784 3.06325,32.71195 0.37157,2.82967 0.67557,5.39421 0.67557,5.69896 0,0.36144 -2.50959,0.55409 -7.21817,0.55409 -6.9292,0 -7.24729,-0.0472 -7.94577,-1.17822 z"
       id="path1-6" /></g></svg>
