<?xml version="1.0" encoding="UTF-8" standalone="no"?>
<!-- Created with Inkscape (http://www.inkscape.org/) -->

<svg
   width="300mm"
   height="300mm"
   viewBox="0 0 300 300"
   version="1.1"
   id="svg1"
   xml:space="preserve"
   inkscape:version="1.4.2 (ebf0e940, 2025-05-08)"
   sodipodi:docname="ghcitty.svg"
   inkscape:export-filename="ghcitty.png"
   inkscape:export-xdpi="96"
   inkscape:export-ydpi="96"
   xmlns:inkscape="http://www.inkscape.org/namespaces/inkscape"
   xmlns:sodipodi="http://sodipodi.sourceforge.net/DTD/sodipodi-0.dtd"
   xmlns:xlink="http://www.w3.org/1999/xlink"
   xmlns="http://www.w3.org/2000/svg"
   xmlns:svg="http://www.w3.org/2000/svg"><sodipodi:namedview
     id="namedview1"
     pagecolor="#ffffff"
     bordercolor="#000000"
     borderopacity="0.25"
     inkscape:showpageshadow="2"
     inkscape:pageopacity="0.0"
     inkscape:pagecheckerboard="0"
     inkscape:deskcolor="#d1d1d1"
     inkscape:document-units="mm"
     inkscape:zoom="0.21211076"
     inkscape:cx="183.8662"
     inkscape:cy="438.45017"
     inkscape:window-width="1152"
     inkscape:window-height="763"
     inkscape:window-x="316"
     inkscape:window-y="108"
     inkscape:window-maximized="0"
     inkscape:current-layer="layer1" /><defs
     id="defs1"><linearGradient
       id="linearGradient7"
       inkscape:collect="always"><stop
         style="stop-color:#950aac;stop-opacity:0.18772563;"
         offset="0"
         id="stop2" /><stop
         style="stop-color:#369af5;stop-opacity:0.29550827;"
         offset="1"
         id="stop7" /></linearGradient><linearGradient
       inkscape:collect="always"
       xlink:href="#linearGradient5"
       id="linearGradient6"
       x1="2.5764923"
       y1="150.27649"
       x2="298.62006"
       y2="150.27649"
       gradientUnits="userSpaceOnUse"
       gradientTransform="translate(0.04472598,-1.1419963)" /><linearGradient
       id="linearGradient5"
       inkscape:collect="always"><stop
         style="stop-color:#950aac;stop-opacity:0.85559565;"
         offset="0"
         id="stop5" /><stop
         style="stop-color:#369af5;stop-opacity:0.29550827;"
         offset="1"
         id="stop6" /></linearGradient><linearGradient
       inkscape:collect="always"
       xlink:href="#linearGradient3"
       id="linearGradient4"
       x1="2.5764923"
       y1="150.27649"
       x2="298.62006"
       y2="150.27649"
       gradientUnits="userSpaceOnUse"
       gradientTransform="translate(0.04472598,-1.1419963)" /><linearGradient
       id="linearGradient3"
       inkscape:collect="always"><stop
         style="stop-color:#000000;stop-opacity:1;"
         offset="0"
         id="stop3" /><stop
         style="stop-color:#000000;stop-opacity:0;"
         offset="1"
         id="stop4" /></linearGradient><linearGradient
       inkscape:collect="always"
       xlink:href="#linearGradient7"
       id="linearGradient1"
       gradientUnits="userSpaceOnUse"
       gradientTransform="matrix(0.89312981,0,0,0.91581181,21.297919,9.786542)"
       x1="2.5764923"
       y1="150.27649"
       x2="298.62006"
       y2="150.27649" /><linearGradient
       inkscape:collect="always"
       xlink:href="#linearGradient3"
       id="linearGradient2"
       gradientUnits="userSpaceOnUse"
       gradientTransform="matrix(0.89312981,0,0,0.91581181,21.297919,9.786542)"
       x1="2.5764923"
       y1="150.27649"
       x2="298.62006"
       y2="150.27649" /><linearGradient
       inkscape:collect="always"
       xlink:href="#linearGradient7"
       id="linearGradient8"
       gradientUnits="userSpaceOnUse"
       gradientTransform="matrix(0.84813183,0,0,0.89336163,0.42714384,30.483874)"
       x1="2.5764923"
       y1="150.27649"
       x2="298.62006"
       y2="150.27649" /><linearGradient
       inkscape:collect="always"
       xlink:href="#linearGradient3"
       id="linearGradient9"
       gradientUnits="userSpaceOnUse"
       gradientTransform="matrix(0.84813183,0,0,0.89336163,0.42714384,30.483874)"
       x1="2.5764923"
       y1="150.27649"
       x2="298.62006"
       y2="150.27649" /><filter
       inkscape:collect="always"
       style="color-interpolation-filters:sRGB"
       id="filter10"
       x="-0.013100755"
       y="-0.0053050443"
       width="1.0262015"
       height="1.0106101"><feGaussianBlur
         inkscape:collect="always"
         stdDeviation="0.49098912"
         id="feGaussianBlur10" /></filter><filter
       inkscape:collect="always"
       style="color-interpolation-filters:sRGB"
       id="filter11"
       x="-0.0064323532"
       y="-0.0077627485"
       width="1.0128647"
       height="1.0155255"><feGaussianBlur
         inkscape:collect="always"
         stdDeviation="0.49098912"
         id="feGaussianBlur11" /></filter><filter
       inkscape:collect="always"
       style="color-interpolation-filters:sRGB"
       id="filter10-7"
       x="-0.013100755"
       y="-0.0053050446"
       width="1.0262015"
       height="1.0106101"><feGaussianBlur
         inkscape:collect="always"
         stdDeviation="0.49098912"
         id="feGaussianBlur10-2" /></filter><filter
       inkscape:collect="always"
       style="color-interpolation-filters:sRGB"
       id="filter11-3"
       x="-0.0064323534"
       y="-0.0077627485"
       width="1.0128647"
       height="1.0155255"><feGaussianBlur
         inkscape:collect="always"
         stdDeviation="0.49098912"
         id="feGaussianBlur11-6" /></filter></defs><g
     inkscape:label="Layer 1"
     inkscape:groupmode="layer"
     id="layer1"><ellipse
       style="fill:url(#linearGradient6);fill-opacity:0.721443;stroke:url(#linearGradient4);stroke-width:0;stroke-dasharray:none;stroke-opacity:1"
       id="path2"
       cx="150.64301"
       cy="149.13449"
       rx="148.02179"
       ry="148.34357" /><ellipse
       style="fill:url(#linearGradient1);fill-opacity:0.721443;stroke:url(#linearGradient2);stroke-width:0;stroke-dasharray:none;stroke-opacity:1"
       id="path2-9"
       cx="155.80173"
       cy="147.41153"
       rx="132.20267"
       ry="135.8548" /><ellipse
       style="fill:url(#linearGradient8);fill-opacity:0.721443;stroke:url(#linearGradient9);stroke-width:0;stroke-dasharray:none;stroke-opacity:1"
       id="path2-9-7"
       cx="128.15434"
       cy="164.73512"
       rx="125.54198"
       ry="132.52446" /><path
       style="fill:#090c0e;fill-opacity:0.40760869;stroke-width:0.28917;opacity:0.9825;filter:url(#filter10)"
       d="m 112.62967,54.581314 1.65041,-14.579518 1.6504,-12.006667 0.82521,-6.003331 1.6504,-3.430476 2.4756,-0.857619 4.12601,2.572858 9.90243,8.576187 6.60161,8.57619 0.8252,3.430477 h 4.12601 9.07723 l 9.07722,1.715236 4.12601,0.857618 4.12601,0.857619 5.77642,-5.145714 6.60161,-4.288094 2.47561,-2.572856 4.12601,-1.715237 h 2.47561 l 0.82519,1.715237 1.65042,5.145714 v 6.003331 9.433808 5.145714 3.430476 l 1.6504,5.145714 0.82519,6.86095 v 5.145713 l -0.82519,12.864285 -1.6504,4.288096 -2.47561,3.43047 -4.95122,5.145715 -7.42682,5.14571 -4.12601,0.85762 -2.47561,0.85762 1.65042,1.71523 2.47559,3.43048 4.12602,6.86094 4.95121,9.43381 0.8252,6.00334 0.8252,6.00333 0.8252,22.2981 v 7.71856 l 0.82521,12.00667 1.6504,18.86762 v 12.86428 l 2.47561,11.14904 0.82521,7.71857 v 2.57286 h -6.60163 -6.60161 -3.30081 l -1.6504,-0.85762 -6.60162,-19.72523 -5.77642,-13.7219 -4.95121,-10.29144 -5.77641,-14.57952 -2.47561,-8.57619 -4.95121,-14.57951 -4.12601,-11.14904 -11.55283,-23.15573 -9.07722,-12.86427 -7.42682,-13.721903 -3.30081,-7.718566 -3.30081,-10.291427 V 74.30655 69.160836 l 2.47561,-7.718569 z"
       id="path9" /><path
       style="fill:#090c0e;fill-opacity:0.40760869;stroke-width:0.28917;opacity:0.9825;filter:url(#filter11)"
       d="m 110.15407,113.75702 -3.30081,8.57618 -8.252018,14.57953 -11.552831,14.57951 -9.902419,19.72524 -6.601616,15.43714 -7.426822,19.72524 V 221.817 l 0.825195,16.29476 3.300814,6.86095 9.902429,10.29142 9.902419,5.14571 15.678839,2.57286 24.75606,2.57286 33.00808,-1.71523 h 25.58126 l 18.97965,-1.71525 17.32924,-4.28809 10.72763,-5.14572 5.77641,-4.28809 3.3008,-5.14571 3.3008,-7.71857 0.82521,-6.86095 -2.47561,-6.00333 -2.4756,-3.43048 h -4.95121 -4.95121 l -3.30081,3.43048 -4.126,5.1457 -4.12601,6.00334 -3.30081,4.2881 -6.60161,4.28809 -10.72764,3.43047 -10.72762,1.71525 -7.42681,-0.85763 h -7.42683 l -3.30081,-6.00333 -4.9512,-7.71857 -6.60162,-16.29476 -1.6504,-6.86095 -4.95122,-7.71857 -1.65041,-6.86096 -7.42681,12.00667 -6.60162,10.29143 -9.90243,11.14905 -9.07722,6.00333 -5.77641,1.71524 -3.3008,-2.57286 4.9512,-9.43381 8.25202,-10.29143 9.90243,-18.00999 3.30081,-16.29476 1.6504,-12.00667 -0.8252,-9.43381 -6.60162,-15.43713 -4.95121,-10.29143 -5.77641,-8.57619 z"
       id="path10" /><path
       style="opacity:0.9825;fill:#090c0e;fill-opacity:0.15217391;stroke-width:0.28917;filter:url(#filter10-7)"
       d="m 119.20069,58.445165 1.65041,-14.579518 1.6504,-12.006667 0.82521,-6.003331 1.6504,-3.430476 2.4756,-0.857619 4.12601,2.572858 9.90243,8.576187 6.60161,8.57619 0.8252,3.430477 h 4.12601 9.07723 l 9.07722,1.715236 4.12601,0.857618 4.12601,0.857619 5.77642,-5.145714 6.60161,-4.288094 2.47561,-2.572856 4.12601,-1.715237 h 2.47561 l 0.82519,1.715237 1.65042,5.145714 v 6.003331 9.433808 5.145714 3.430476 l 1.6504,5.145714 0.82519,6.860955 v 5.14571 l -0.82519,12.86428 -1.6504,4.2881 -2.47561,3.430463 -4.95122,5.14571 -7.42682,5.14571 -4.12601,0.85762 -2.47561,0.85762 1.65042,1.71523 2.47559,3.43048 4.12602,6.86094 4.95121,9.43381 0.8252,6.00334 0.8252,6.00333 0.8252,22.2981 v 7.71856 l 0.82521,12.00667 1.6504,18.86762 v 12.86428 l 2.47561,11.14904 0.82521,7.71857 v 2.57286 h -6.60163 -6.60161 -3.30081 l -1.6504,-0.85762 -6.60162,-19.72523 -5.77642,-13.7219 -4.95121,-10.29144 -5.77641,-14.57952 -2.47561,-8.57619 -4.95121,-14.57951 -4.12601,-11.14904 -11.55283,-23.15573 -9.07722,-12.86427 -7.42682,-13.72189 -3.30081,-7.718563 -3.30081,-10.29143 v -4.2881 -5.14571 l 2.47561,-7.718569 z"
       id="path9-8" /><path
       style="opacity:0.9825;fill:#090c0e;fill-opacity:0.15217391;stroke-width:0.28917;filter:url(#filter11-3)"
       d="m 116.72509,117.62086 -3.30081,8.57618 -8.25202,14.57953 -11.552824,14.57951 -9.902419,19.72524 -6.601616,15.43714 -7.426822,19.72524 v 15.43714 l 0.825195,16.29476 3.300814,6.86095 9.902429,10.29142 9.902419,5.14571 15.678834,2.57286 24.75606,2.57286 33.00808,-1.71523 h 25.58126 l 18.97965,-1.71525 17.32924,-4.28809 10.72763,-5.14572 5.77641,-4.28809 3.3008,-5.14571 3.3008,-7.71857 0.82521,-6.86095 -2.47561,-6.00333 -2.4756,-3.43048 h -4.95121 -4.95121 l -3.30081,3.43048 -4.126,5.1457 -4.12601,6.00334 -3.30081,4.2881 -6.60161,4.28809 -10.72764,3.43047 -10.72762,1.71525 -7.42681,-0.85763 h -7.42683 l -3.30081,-6.00333 -4.9512,-7.71857 -6.60162,-16.29476 -1.6504,-6.86095 -4.95122,-7.71857 -1.65041,-6.86096 -7.42681,12.00667 -6.60162,10.29143 -9.90243,11.14905 -9.07722,6.00333 -5.77641,1.71524 -3.3008,-2.57286 4.9512,-9.43381 8.25202,-10.29143 9.90243,-18.00999 3.30081,-16.29476 1.6504,-12.00667 -0.8252,-9.43381 -6.60162,-15.43713 -4.95121,-10.29143 -5.77641,-8.57619 z"
       id="path10-1" /></g></svg>
