<?xml version="1.0" encoding="UTF-8" standalone="no"?>
<!-- Created with Inkscape (http://www.inkscape.org/) -->

<svg
   width="300mm"
   height="300mm"
   viewBox="0 0 300 300"
   version="1.1"
   id="svg1"
   inkscape:version="1.4.2 (ebf0e940, 2025-05-08)"
   sodipodi:docname="pipeviz.svg"
   inkscape:export-filename="pipeviz.png"
   inkscape:export-xdpi="96"
   inkscape:export-ydpi="96"
   xmlns:inkscape="http://www.inkscape.org/namespaces/inkscape"
   xmlns:sodipodi="http://sodipodi.sourceforge.net/DTD/sodipodi-0.dtd"
   xmlns:xlink="http://www.w3.org/1999/xlink"
   xmlns="http://www.w3.org/2000/svg"
   xmlns:svg="http://www.w3.org/2000/svg">
  <sodipodi:namedview
     id="namedview1"
     pagecolor="#ffffff"
     bordercolor="#000000"
     borderopacity="0.25"
     inkscape:showpageshadow="2"
     inkscape:pageopacity="0.0"
     inkscape:pagecheckerboard="0"
     inkscape:deskcolor="#d1d1d1"
     inkscape:document-units="mm"
     inkscape:zoom="0.44859044"
     inkscape:cx="763.50267"
     inkscape:cy="590.73929"
     inkscape:window-width="1496"
     inkscape:window-height="965"
     inkscape:window-x="164"
     inkscape:window-y="34"
     inkscape:window-maximized="0"
     inkscape:current-layer="layer1" />
  <defs
     id="defs1">
    <linearGradient
       id="linearGradient20"
       inkscape:collect="always">
      <stop
         style="stop-color:#050d1c;stop-opacity:1;"
         offset="0"
         id="stop19" />
      <stop
         style="stop-color:#0a61eb;stop-opacity:0.34972677;"
         offset="1"
         id="stop20" />
    </linearGradient>
    <linearGradient
       id="linearGradient18"
       inkscape:collect="always">
      <stop
         style="stop-color:#85a7e9;stop-opacity:1;"
         offset="0"
         id="stop17" />
      <stop
         style="stop-color:#9dbcf7;stop-opacity:0.34972677;"
         offset="1"
         id="stop18" />
    </linearGradient>
    <rect
       x="21.79172"
       y="105.32664"
       width="363.19533"
       height="185.22962"
       id="rect1" />
    <linearGradient
       inkscape:collect="always"
       xlink:href="#linearGradient18"
       id="linearGradient13"
       x1="1.4414368"
       y1="150.38934"
       x2="298.85678"
       y2="150.38934"
       gradientUnits="userSpaceOnUse" />
    <linearGradient
       inkscape:collect="always"
       xlink:href="#linearGradient20"
       id="linearGradient14"
       gradientUnits="userSpaceOnUse"
       x1="1.4414368"
       y1="150.38934"
       x2="298.85678"
       y2="150.38934"
       gradientTransform="translate(124.75659,-0.86098764)" />
    <filter
       inkscape:collect="always"
       style="color-interpolation-filters:sRGB"
       id="filter17"
       x="-0.090585651"
       y="-0.060194486"
       width="1.1811713"
       height="1.120389">
      <feGaussianBlur
         inkscape:collect="always"
         stdDeviation="0.81483111"
         id="feGaussianBlur17" />
    </filter>
    <filter
       inkscape:collect="always"
       style="color-interpolation-filters:sRGB"
       id="filter30"
       x="-0.02154915"
       y="-0.026628743"
       width="1.0430983"
       height="1.0532575">
      <feGaussianBlur
         inkscape:collect="always"
         stdDeviation="1.8228509"
         id="feGaussianBlur30" />
    </filter>
    <filter
       inkscape:collect="always"
       style="color-interpolation-filters:sRGB"
       id="filter31"
       x="-0.044073077"
       y="-0.024271072"
       width="1.0881462"
       height="1.0485421">
      <feGaussianBlur
         inkscape:collect="always"
         stdDeviation="1.3984257"
         id="feGaussianBlur31" />
    </filter>
  </defs>
  <g
     inkscape:label="Layer 1"
     inkscape:groupmode="layer"
     id="layer1">
    <path
       d="m 126.1985,149.37279 -9.06715,8.55142 10.19835,9.61853 a 148.70767,148.46744 0 0 1 -1.13172,-18.0144 148.70767,148.46744 0 0 1 5.2e-4,-0.15555 z"
       style="fill:url(#linearGradient13);stroke-width:0.336763"
       id="path27" />
    <path
       d="M 136.56737,95.383842 110.99684,71.268001 84.838749,95.93988 l 38.426591,36.24378 4.5713,-4.31188 a 148.70767,148.46744 0 0 1 8.73073,-32.487938 z"
       style="fill:url(#linearGradient13);stroke-width:0.336763"
       id="path25" />
    <path
       d="M 150.14897,1.9218465 A 148.70767,148.46744 0 0 0 1.4412557,150.38927 148.70767,148.46744 0 0 0 150.14897,298.85669 148.70767,148.46744 0 0 0 213.40248,284.43173 148.70767,148.46744 0 0 1 132.64978,192.5159 l -31.38619,-29.60336 c -1.403285,-1.32452 -2.191084,-3.11736 -2.191084,-4.98936 0,-1.87201 0.787799,-3.66579 2.191084,-4.98936 l 11.42256,-10.77299 -43.715166,-41.23211 c -2.921259,-2.755327 -2.921259,-7.221928 0,-9.978199 L 105.70776,56.300439 c 2.92026,-2.754389 7.65591,-2.754389 10.57817,0 l 26.6454,25.129733 A 148.70767,148.46744 0 0 1 211.65271,15.485876 148.70767,148.46744 0 0 0 150.14897,1.9218465 Z"
       style="fill:url(#linearGradient13);stroke-width:0.336763"
       id="path20" />
    <path
       d="m 196.74251,152.13955 -26.15964,24.67395 38.42504,36.24171 26.15965,-24.67291 z"
       style="fill:url(#linearGradient14);stroke-width:0.336763;filter:url(#filter17)"
       id="path28" />
    <path
       d="m 126.1985,149.37279 a 148.70767,148.46744 0 0 0 -5.2e-4,0.15555 148.70767,148.46744 0 0 0 1.13172,18.0144 l 15.96233,15.05542 29.79095,-28.09803 18.36838,-17.32607 0.007,-0.007 11.41584,-10.7673 -26.15965,-24.67292 -35.75027,33.71888 -12.41061,11.70522 -0.005,0.005 z"
       style="fill:url(#linearGradient14);stroke-width:0.336763;filter:url(#filter17)"
       id="path26" />
    <path
       d="m 136.56737,95.383842 a 148.70767,148.46744 0 0 0 -8.73073,32.487938 l 4.46743,-4.21369 17.12092,-16.14837 z"
       style="fill:url(#linearGradient14);stroke-width:0.336763;filter:url(#filter17)"
       id="path24" />
    <path
       d="m 211.65271,15.485876 a 148.70767,148.46744 0 0 0 -68.72138,65.944296 l 17.07337,16.102376 11.42205,-10.772986 c 2.92125,-2.75439 7.65639,-2.75439 10.57764,0 l 36.73781,34.650078 c 1.40329,1.32452 2.19108,3.1183 2.19108,4.98936 0,1.87201 -0.78779,3.6663 -2.19108,4.98988 l -11.42255,10.77299 43.71516,41.2321 c 1.40328,1.32358 2.19104,3.11726 2.19004,4.98833 0,1.87201 -0.7878,3.66578 -2.19108,4.98936 l -36.73781,34.65008 c -1.46013,1.3772 -3.37515,2.06602 -5.28908,2.06602 -1.91393,0 -3.82795,-0.68882 -5.28908,-2.06602 l -43.71413,-41.23107 -11.42256,10.77402 c -1.46013,1.37719 -3.37515,2.0655 -5.28908,2.0655 -1.91393,0 -3.82895,-0.68831 -5.28908,-2.0655 l -5.35317,-5.04879 a 148.70767,148.46744 0 0 0 80.7527,91.91583 148.70767,148.46744 0 0 0 85.45421,-134.04246 148.70767,148.46744 0 0 0 -87.20398,-134.903394 z"
       style="fill:url(#linearGradient14);stroke-width:0.336763;filter:url(#filter17)"
       id="path21" />
    <text
       xml:space="preserve"
       transform="scale(0.26458333)"
       id="text1"
       style="text-align:start;writing-mode:lr-tb;direction:ltr;white-space:pre;shape-inside:url(#rect1);display:inline;fill:#000000" />
    <path
       d="m 132.64978,192.51538 a 148.70767,148.46744 0 0 1 -5.32008,-24.97212 l -10.19835,-9.61905 9.06715,-8.55142 a 148.70767,148.46744 0 0 1 1.63814,-21.50101 l -4.5713,4.31188 -38.426591,-36.24378 26.158091,-24.671879 25.57053,24.115841 a 148.70767,148.46744 0 0 1 6.36396,-13.95367 l -26.6454,-25.129733 c -2.92226,-2.754389 -7.65791,-2.754389 -10.57817,0 L 68.970984,90.950521 c -2.921259,2.756271 -2.921259,7.222872 0,9.978199 l 43.715166,41.23211 -11.42256,10.77299 c -1.403285,1.32357 -2.191084,3.11735 -2.191084,4.98936 0,1.872 0.787799,3.66484 2.191084,4.98936 z"
       style="fill:#08080c;fill-opacity:0.89961392;filter:url(#filter31);opacity:0.86941581"
       id="path23" />
    <path
       d="m 132.64978,192.5159 5.35317,5.04879 c 1.46013,1.37719 3.37515,2.0655 5.28908,2.0655 1.91393,0 3.82895,-0.68831 5.28908,-2.0655 l 11.42256,-10.77402 43.71413,41.23107 c 1.46113,1.3772 3.37515,2.06602 5.28908,2.06602 1.91393,0 3.82895,-0.68882 5.28908,-2.06602 l 36.73781,-34.65008 c 1.40328,-1.32358 2.19108,-3.11735 2.19108,-4.98936 0.001,-1.87107 -0.78676,-3.66475 -2.19004,-4.98833 l -43.71516,-41.2321 11.42255,-10.77299 c 1.40329,-1.32358 2.19108,-3.11787 2.19108,-4.98988 0,-1.87106 -0.78779,-3.66484 -2.19108,-4.98936 L 182.00439,86.759562 c -2.92125,-2.75439 -7.65639,-2.75439 -10.57764,0 L 160.0047,97.532548 142.93133,81.430172 a 148.70767,148.46744 0 0 0 -6.36396,13.95367 l 12.85762,12.125878 -17.12092,16.14837 -4.46743,4.21369 a 148.70767,148.46744 0 0 0 -1.63814,21.50101 l 2.35076,-2.21691 0.005,-0.005 12.41061,-11.70522 35.75027,-33.71888 26.15965,24.67292 -11.41584,10.7673 -0.007,0.007 -18.36838,17.32607 -29.79095,28.09803 -15.96233,-15.0549 a 148.70767,148.46744 0 0 0 5.32008,24.97212 z m 64.09273,-40.37635 38.42505,36.24275 -26.15965,24.67291 -38.42504,-36.24171 z M 57.68795,170.61026 c 4.13105,0 7.48016,3.15803 7.48016,7.05538 0,14.40881 5.94906,27.95616 16.75144,38.14496 10.80237,10.1888 25.16442,15.79998 40.44094,15.79904 4.13105,0 7.48116,3.15803 7.48016,7.05538 0,3.89641 -3.34807,7.05538 -7.47913,7.05538 h -0.004 c -19.27193,0 -37.38963,-7.07881 -51.01653,-19.93263 -13.62689,-12.85382 -21.13307,-29.94391 -21.13307,-48.12213 0,-3.89641 3.34811,-7.05538 7.48016,-7.05538 z m 29.34498,2.82256 c 4.13205,0 7.48068,3.15846 7.48068,7.05487 0,6.26229 2.5851,12.14938 7.27966,16.57728 4.69556,4.42791 10.93682,6.86729 17.57722,6.86729 4.13105,0 7.48017,3.15803 7.48017,7.05538 0,3.89735 -3.34912,7.05538 -7.48017,7.05538 -10.63582,0 -20.63531,-3.90597 -28.15539,-10.99984 -7.52107,-7.09387 -11.66333,-16.52473 -11.66233,-26.55549 0,-3.89641 3.34911,-7.05487 7.48016,-7.05487 z"
       style="fill:#192126;fill-opacity:0.77606177;filter:url(#filter30)"
       id="path22" />
  </g>
</svg>
